<?xml version="1.0" encoding="UTF-8"?>
<svg id="Layer_2" data-name="Layer 2" xmlns="http://www.w3.org/2000/svg" viewBox="0 0 2184.79 505.62">
  <defs>
    <style>
      .cls-1 {
        fill: #fb1c22;
      }

      .cls-1, .cls-2, .cls-3, .cls-4, .cls-5, .cls-6 {
        stroke-width: 0px;
      }

      .cls-2 {
        fill: #06b3e8;
      }

      .cls-3 {
        fill: #f2d667;
      }

      .cls-4 {
        fill: #fff;
      }

      .cls-5 {
        fill: #fdbc06;
      }

      .cls-6 {
        fill: #f5ce61;
      }
    </style>
  </defs>
  <g id="Layer_2-2" data-name="Layer 2">
    <g>
      <path class="cls-4" d="m711.95,312.21c0,27.27,0,53.08,0,78.89,0,8.13,3.87,11.98,11.96,12.11,25.13.4,50.23,1.33,74.7,7.91,5.59,1.5,10.95,3.83,16.47,5.59,2.49.79,5.11,1.45,7.7,1.61,9.51.59,17.76,3.64,24.41,10.82,5.77,6.23,12.05,11.97,17.83,18.19,5.88,6.34,8.63,14.07,8.93,22.71.21,5.98.68,11.95.73,17.93.1,11.38-5.7,16.52-17.16,17.36-19.32,1.42-37.45-2.68-55.59-8.89-23.35-7.99-47.38-13.92-72.34-12.03-10.12.77-20.33,3.25-29.99,6.49-11.44,3.83-22.62,7.3-34.45,2.83-10.8-4.07-18.11-12.11-21.01-23.08-2.23-8.43-3.63-17.33-3.7-26.03-.37-42.66-.38-85.32,0-127.98.07-8.04,2.65-16.04,3.74-24.11,3.26-24.07,2.91-48.22-1.42-72.03-4.7-25.85-10.85-51.44-16.31-77.15-.65-3.08-1.26-6.24-1.28-9.36-.11-22.16.11-44.33-.12-66.49-.11-11.32,3.25-20.83,11.79-28.51,1.69-1.52,2.87-4.02,3.43-6.28,1.79-7.21,6.22-11.6,13.84-12.25,5.13-.43,10.33-.4,15.48-.12,4.99.27,8.97,2.91,11.27,7.28,7.8,14.84,20.96,18.17,35.92,16.04,11.31-1.61,22.38-4.92,33.61-7.22,4.7-.96,9.54-1.23,14.31-1.85,22.4-2.95,44.84-5.61,67.18-8.95,23.25-3.47,46.5-6.46,70.07-5.4,9.93.45,19.43,2.72,25.33,11.54,2.74,4.09,5.06,9.18,5.44,13.98.82,10.27.23,20.64.25,30.98.01,6.1-2.61,10.61-7.34,14.53-12.61,10.48-26.96,14.97-43.28,15.04-31.28.14-62.01,5-92.21,12.94-18.61,4.9-36.87,11.12-55.53,15.78-7.91,1.98-16.44,1.5-24.69,2.14-3.46.27-6.93.53-10.87.83-.42,2.81-1.08,5.37-1.14,7.95-.4,16.64-.78,33.28-.92,49.92-.05,5.64.52,11.28.97,16.91.1,1.27.47,3.17,1.33,3.62,6.5,3.44,13.09,9.22,19.77,9.39,36.64.91,73.31.38,109.98.43,17.02.03,31.45,6.24,42.94,18.85,6.5,7.13,7.89,15.46,5.03,24.62-1.13,3.61-2.25,7.24-2.99,10.94-2.32,11.55-6.57,15.67-18.26,17.87-11.07,2.08-22.09,4.47-33.15,6.64-25.07,4.92-50.37,7.35-75.92,7.09-11.45-.12-22.9-.02-34.69-.02Z"/>
      <path class="cls-4" d="m1351.14,488.21c-7.33,0-14.67,0-22,0-17.82-.01-27.75-7.57-30.48-25.04-1.32-8.43-1.11-17.37.06-25.86,1.66-12.03,11.35-20.36,26.43-21.31,20.66-1.3,40.22-7.4,60.27-11.35,4.4-.87,8.83-2,13.27-2.18,8-.32,14.16-3.72,20.24-8.77,3.86-3.21,9.32-5.03,14.35-6.12,4.03-.86,6.75-2.06,9.18-5.55,7.04-10.12,11.53-21.07,11.42-33.43-.1-11.42-4.75-20.53-15.35-26.04-14.58-7.57-28.83-15.84-43.74-22.67-6.57-3.01-14.37-3.91-21.72-4.52-9.25-.77-16.11-6.04-23.25-10.69-17.61-11.47-33.46-25.18-48.5-39.83-6.68-6.5-13.18-13.21-20.22-19.3-13.21-11.45-20.58-26.44-26-42.46-6.02-17.77-8.98-36.19-7.89-55,1.32-22.8,6.52-44.66,21.37-62.67,15.76-19.12,34.37-34.56,60.49-36.8,27.91-2.4,53.37,3.13,73.19,24.78,6.17,6.73,11.11,14.52,11.65,23.74.58,10.04,1.11,20.45-.85,30.2-2.86,14.22-16.47,19.03-28.62,11.16-3.66-2.37-7.19-3.34-11.49-3.49-3.86-.13-7.76-1.43-11.5-2.66-5.03-1.66-9.84-4.03-14.9-5.57-7.29-2.21-12.05-.92-15.87,5.64-5.73,9.85-12.93,18.4-20.41,26.85-7.93,8.95-6.95,18.89-2.19,28.88,6.61,13.9,16.6,25.15,29.65,32.95,18.66,11.16,37.77,21.61,57.07,31.63,21.53,11.18,43.46,21.62,65.28,32.25,9.85,4.79,20.2,8.66,29.75,13.97,18.42,10.24,31.86,25.65,41,44.41,6.38,13.1,12.01,26.69,16.46,40.55,2.02,6.28,1.22,13.87.22,20.66-4.7,32.02-20.85,56.71-49.89,71.45-11.42,5.79-24.32,8.72-36.65,12.63-22.97,7.28-45.93,14.8-69.98,17.64-13.19,1.56-26.54,1.8-39.82,2.63-.02-.24-.03-.48-.05-.73Z"/>
      <path class="cls-4" d="m1987.56,488.21c-8.16,0-16.33.06-24.49-.01-15.07-.13-25.09-7.92-27.81-22.76-2.04-11.12-3.36-22.6,1.27-33.44,3.68-8.6,10.29-14.84,19.95-15.32,27.48-1.39,53.37-11.25,80.43-14.5,7.04-.85,12.46-3.32,17.33-8.13,4.3-4.25,9.74-6.09,15.73-6.76,2.15-.24,4.95-.87,6.14-2.36,10.3-12.99,16.45-27.37,12.79-44.38-1.48-6.9-4.99-12.78-11.36-16.25-14.72-8.04-29.28-16.47-44.5-23.47-7.33-3.37-15.91-4.63-24.06-5.4-8.38-.79-14.93-5.05-21.04-9.55-15.09-11.14-29.78-22.87-44.13-34.96-9.02-7.6-16.86-16.58-25.72-24.38-13.33-11.74-21.18-26.8-26.79-43.12-5.88-17.1-8.68-34.9-8.01-52.99.9-24.23,6.74-47.07,22.3-66.38,32.43-40.24,80.14-46.82,120.66-21.4,16.42,10.3,25.82,25.76,24.61,46.01-.45,7.55-.69,15.44-3.1,22.47-3.73,10.87-15.7,14.5-25.47,8.34-4.84-3.05-9.57-4.25-15.22-4.55-4.6-.24-9.08-2.77-13.61-4.31-4.07-1.39-8.05-3.13-12.21-4.17-4.97-1.24-10.07-.62-12.94,4.03-6.89,11.21-15.32,21.14-23.6,31.3-7.61,9.34-4.06,19.79,1.05,29.47,10.19,19.29,27.2,31.3,45.75,40.93,36.86,19.13,74.03,37.69,111.39,55.82,12.27,5.95,24.83,11,35.67,19.63,15.69,12.5,25.77,28.91,33.94,46.74,2.76,6.02,4.51,12.52,7.42,18.46,7.62,15.55,5.09,31.19.55,46.68-7.36,25.14-22.93,43.95-45.95,56.36-4.9,2.64-10.44,4.24-15.83,5.79-27.11,7.81-54.05,16.45-81.52,22.75-16.04,3.68-32.97,3.5-49.5,5.06-.04-.42-.08-.84-.12-1.26Z"/>
      <path class="cls-4" d="m153.75,196.33c3.49-9.53,6.8-18.56,10.11-27.6.06-.16.06-.35.15-.47,8.81-11.37,8.8-24.99,10.37-38.4,1.84-15.7,10.62-28.14,24.21-35.33,12.78-6.75,14.95-17.72,16.39-29.67.84-6.91.27-13.99,1.11-20.9.45-3.75,1.85-7.78,4.01-10.84,4.71-6.67,9.36-12.99,10.76-21.51,1.62-9.86,13.51-14.29,24.23-9.93,6.94,2.82,11.73,7.89,15.83,13.95,3.91,5.77,8.53,11.1,12.06,17.08,2.1,3.55,3.65,7.96,3.79,12.04.46,13.82,1.42,27.8-.2,41.44-1.4,11.87-5.52,23.53-9.33,34.99-14.82,44.67-36.28,86.14-60.56,126.34-5.9,9.76-8.69,21.45-12.59,32.36-10.96,30.63-21.87,61.26-36.45,90.45-10.42,20.86-19.4,42.34-22.37,65.75-.88,6.91-1.09,13.91-1.51,20.87-.65,10.98-6.57,16.91-17.5,16.77-4.08-.05-7.15,1.41-10.56,3.36-4.97,2.84-10.33,5.9-15.84,6.74-16.56,2.5-27.01-6.95-27.62-24.66-.47-13.81-.19-27.66,0-41.49.03-2.57,1.07-5.17,1.86-7.69,5.2-16.62,10.4-33.24,15.71-49.83,3.08-9.64,6.36-19.21,9.55-28.81,2.14-6.44,4.2-12.91,6.49-19.29.89-2.48,1.81-5.34,3.64-7.03,7.73-7.13,6.64-16.18,5.2-24.81-1.85-11.1-4.94-21.99-7.5-32.97-.71-3.05-2.1-5.28-5.45-6.33-2.13-.67-4.1-2.22-5.81-3.74-4.55-4.04-8.48-8.51-15.14-9.8-4.83-.93-6.75-5.62-8.35-10.31-2.11-6.17-4.26-12.69-8.08-17.79-3.79-5.07-6.17-9.98-6.56-16.2-.77-12.25-5.8-23.07-11.77-33.56-4.6-8.08-8.51-16.59-13.54-24.38-3.47-5.37-8.23-9.95-12.61-14.71C5.57,94.86.4,76.04.03,55.46c-.05-2.67-.02-5.33-.02-8,0-15.48,14.47-27.37,29.95-24.54,12.89,2.36,20.6,10.48,24.97,22.46,1.74,4.77,3.62,9.61,6.26,13.91,13.58,22.06,27.93,43.67,41,66.02,7.85,13.42,14.15,27.79,20.55,42.01,2.01,4.47,4.68,7.17,8.61,9.97,7.12,5.07,13.29,11.47,19.88,17.29.61.54,1.35.94,2.52,1.75Z"/>
      <path class="cls-1" d="m474.96,256.3c-1.06,27.96-23.82,52.35-53.53,51.65-25.87-.61-50.24-22.08-50.41-52.19-.16-28.62,23.7-51.64,52.89-51.51,27.18.12,50.58,23.72,51.06,52.06Z"/>
      <path class="cls-2" d="m1142.94,252.64c-.39,28.54-24.65,51.98-52.93,51.64-27.28-.32-51.56-24.19-50.98-52.44.57-28.16,23.6-51.33,52.06-51.4,27.07-.07,51.63,22.73,51.85,52.2Z"/>
      <path class="cls-6" d="m1661.03,260.23c-1.51-13.05.22-25.52,7.83-36.49,6.56-9.46,14.69-17.4,26.26-20.45,6.47-1.7,13.25-4.03,19.72-3.59,16.79,1.14,30.53,8.21,40.61,22.66,8.38,12.03,10.95,24.75,9.32,38.83-.61,0-1.23,0-1.84,0,.86-13.29-1.47-25.33-9.21-36.92-10.29-15.41-25.21-20.99-42.03-22.69-5.94-.6-12.81,1.71-18.33,4.51-13.5,6.83-24.66,16.63-28.33,32.03-1.85,7.75-1.45,16.03-2.07,24.08-.64-.66-1.28-1.32-1.92-1.98Z"/>
      <path class="cls-3" d="m1762.93,261.2c.61,0,1.23,0,1.84,0-1.91,9.62-6.09,18.19-12.43,25.62-12.6,14.77-29.06,20.4-47.79,17.82-7.34-1.01-14.69-4.66-21.18-8.54-11.63-6.96-17.78-18.44-22.09-30.92-.52-1.5-.19-3.29-.25-4.95.64.66,1.28,1.32,1.92,1.98,1.57,4.25,2.35,9.07,4.89,12.62,4.18,5.84,7.57,12.15,13.9,16.69,9.49,6.79,19.57,10.93,31,11.56,4,.22,8.42-.47,12.07-2.05,7.43-3.22,15.53-6.13,21.41-11.36,8.32-7.4,13.75-17.43,16.69-28.46Z"/>
      <path class="cls-5" d="m1762.93,261.2c-2.95,11.03-8.37,21.06-16.69,28.46-5.88,5.23-13.99,8.14-21.41,11.36-3.66,1.58-8.07,2.27-12.07,2.05-11.44-.63-21.51-4.76-31-11.56-6.33-4.53-9.73-10.85-13.9-16.69-2.54-3.55-3.32-8.37-4.89-12.62.62-8.04.22-16.33,2.07-24.08,3.67-15.4,14.83-25.2,28.33-32.03,5.53-2.8,12.39-5.11,18.33-4.51,16.82,1.7,31.74,7.28,42.03,22.69,7.74,11.59,10.07,23.64,9.21,36.92Z"/>
    </g>
  </g>
</svg>