<?xml version="1.0" encoding="UTF-8"?>
<svg id="Layer_1" data-name="Layer 1" xmlns="http://www.w3.org/2000/svg" viewBox="0 0 2220 520">
  <defs>
    <style>
      .cls-1 {
        fill: #fb1c22;
      }

      .cls-1, .cls-2, .cls-3, .cls-4, .cls-5, .cls-6, .cls-7 {
        stroke-width: 0px;
      }

      .cls-2 {
        fill: #06b3e8;
      }

      .cls-3 {
        fill: #f2d667;
      }

      .cls-4 {
        fill: #fdbc06;
      }

      .cls-5 {
        fill: #fefefe;
      }

      .cls-6 {
        fill: #f5ce61;
      }

      .cls-7 {
        fill: #020202;
      }
    </style>
  </defs>
  <path class="cls-5" d="m2220,520H0C0,346.67,0,173.33,0,0,740,0,1480,0,2220,0v520Zm-535.91-252.98c.06,1.66-.27,3.45.25,4.95,4.3,12.48,10.45,23.97,22.09,30.92,6.49,3.88,13.84,7.53,21.18,8.54,18.74,2.58,35.19-3.05,47.79-17.82,6.34-7.43,10.52-16,12.43-25.62,1.63-14.08-.94-26.81-9.32-38.83-10.07-14.45-23.81-21.52-40.61-22.66-6.47-.44-13.25,1.88-19.72,3.59-11.57,3.05-19.69,10.99-26.26,20.45-7.61,10.97-9.34,23.44-7.83,36.49Zm-949.08,51.99c11.79,0,23.24-.1,34.69.02,25.56.26,50.86-2.17,75.92-7.09,11.06-2.17,22.07-4.56,33.15-6.64,11.69-2.2,15.94-6.32,18.26-17.87.74-3.7,1.86-7.33,2.99-10.94,2.86-9.16,1.47-17.49-5.03-24.62-11.49-12.61-25.92-18.83-42.94-18.85-36.66-.06-73.34.48-109.98-.43-6.68-.17-13.27-5.95-19.77-9.39-.86-.45-1.23-2.35-1.33-3.62-.44-5.63-1.02-11.28-.97-16.91.15-16.64.52-33.28.92-49.92.06-2.58.72-5.14,1.14-7.95,3.94-.3,7.4-.56,10.87-.83,8.25-.64,16.78-.16,24.69-2.14,18.66-4.67,36.92-10.88,55.53-15.78,30.2-7.95,60.93-12.81,92.21-12.94,16.32-.07,30.67-4.57,43.28-15.04,4.72-3.92,7.35-8.43,7.34-14.53-.02-10.33.56-20.71-.25-30.98-.38-4.8-2.7-9.89-5.44-13.98-5.9-8.82-15.4-11.09-25.33-11.54-23.57-1.06-46.82,1.92-70.07,5.4-22.34,3.34-44.78,6-67.18,8.95-4.77.63-9.61.89-14.31,1.85-11.23,2.3-22.29,5.61-33.61,7.22-14.96,2.13-28.12-1.2-35.92-16.04-2.3-4.37-6.28-7.01-11.27-7.28-5.15-.28-10.35-.31-15.48.12-7.62.64-12.06,5.04-13.84,12.25-.56,2.26-1.74,4.76-3.43,6.28-8.54,7.68-11.9,17.19-11.79,28.51.23,22.16.01,44.33.12,66.49.02,3.12.63,6.29,1.28,9.36,5.46,25.71,11.61,51.3,16.31,77.15,4.33,23.81,4.68,47.96,1.42,72.03-1.09,8.06-3.67,16.06-3.74,24.11-.37,42.66-.36,85.32,0,127.98.08,8.7,1.47,17.6,3.7,26.03,2.91,10.97,10.22,19.01,21.01,23.08,11.83,4.46,23.01,1,34.45-2.83,9.66-3.24,19.87-5.72,29.99-6.49,24.96-1.89,48.99,4.04,72.34,12.03,18.15,6.21,36.27,10.31,55.59,8.89,11.46-.84,17.27-5.98,17.16-17.36-.05-5.98-.52-11.95-.73-17.93-.3-8.63-3.05-16.37-8.93-22.71-5.77-6.22-12.06-11.97-17.83-18.19-6.65-7.18-14.9-10.23-24.41-10.82-2.59-.16-5.21-.82-7.7-1.61-5.53-1.76-10.89-4.08-16.47-5.59-24.46-6.58-49.56-7.51-74.7-7.91-8.09-.13-11.97-3.98-11.96-12.11,0-25.81,0-51.63,0-78.89Zm639.2,176c.02.24.03.48.05.73,13.28-.83,26.63-1.07,39.82-2.63,24.04-2.84,47.01-10.36,69.98-17.64,12.33-3.91,25.24-6.83,36.65-12.63,29.04-14.74,45.19-39.42,49.89-71.45,1-6.78,1.8-14.37-.22-20.66-4.45-13.86-10.08-27.45-16.46-40.55-9.14-18.76-22.58-34.16-41-44.41-9.55-5.31-19.9-9.18-29.75-13.97-21.82-10.62-43.75-21.06-65.28-32.25-19.3-10.02-38.41-20.48-57.07-31.63-13.05-7.8-23.03-19.05-29.65-32.95-4.76-10-5.73-19.93,2.19-28.88,7.48-8.45,14.68-17,20.41-26.85,3.82-6.56,8.57-7.85,15.87-5.64,5.06,1.53,9.87,3.91,14.9,5.57,3.74,1.23,7.63,2.53,11.5,2.66,4.3.14,7.84,1.12,11.49,3.49,12.15,7.86,25.76,3.06,28.62-11.16,1.96-9.75,1.43-20.15.85-30.2-.53-9.23-5.48-17.01-11.65-23.74-19.82-21.65-45.29-27.18-73.19-24.78-26.12,2.24-44.73,17.68-60.49,36.8-14.85,18.01-20.05,39.87-21.37,62.67-1.09,18.8,1.87,37.23,7.89,55,5.43,16.02,12.79,31.01,26,42.46,7.03,6.09,13.54,12.8,20.22,19.3,15.04,14.65,30.89,28.36,48.5,39.83,7.14,4.65,14,9.92,23.25,10.69,7.35.61,15.15,1.51,21.72,4.52,14.91,6.83,29.16,15.1,43.74,22.67,10.6,5.5,15.25,14.62,15.35,26.04.11,12.36-4.38,23.31-11.42,33.43-2.43,3.5-5.16,4.69-9.18,5.55-5.03,1.08-10.49,2.91-14.35,6.12-6.08,5.05-12.23,8.45-20.24,8.77-4.45.18-8.87,1.31-13.27,2.18-20.05,3.95-39.61,10.05-60.27,11.35-15.08.95-24.78,9.28-26.43,21.31-1.17,8.48-1.38,17.43-.06,25.86,2.74,17.47,12.66,25.02,30.48,25.04,7.33,0,14.67,0,22,0Zm636.42,0c.04.42.08.84.12,1.26,16.53-1.56,33.45-1.38,49.5-5.06,27.47-6.29,54.4-14.94,81.52-22.75,5.39-1.55,10.93-3.15,15.83-5.79,23.02-12.42,38.59-31.22,45.95-56.36,4.54-15.49,7.07-31.13-.55-46.68-2.91-5.94-4.66-12.44-7.42-18.46-8.17-17.83-18.25-34.24-33.94-46.74-10.83-8.63-23.39-13.68-35.67-19.63-37.36-18.13-74.53-36.69-111.39-55.82-18.55-9.63-35.56-21.64-45.75-40.93-5.11-9.67-8.67-20.12-1.05-29.47,8.28-10.16,16.7-20.09,23.6-31.3,2.87-4.66,7.97-5.28,12.94-4.03,4.16,1.04,8.14,2.78,12.21,4.17,4.52,1.55,9.01,4.07,13.61,4.31,5.65.3,10.38,1.5,15.22,4.55,9.77,6.15,21.74,2.53,25.47-8.34,2.41-7.03,2.65-14.92,3.1-22.47,1.21-20.26-8.2-35.71-24.61-46.01-40.51-25.42-88.23-18.84-120.66,21.4-15.56,19.31-21.4,42.15-22.3,66.38-.67,18.09,2.13,35.89,8.01,52.99,5.61,16.32,13.46,31.38,26.79,43.12,8.86,7.8,16.7,16.78,25.72,24.38,14.35,12.09,29.04,23.82,44.13,34.96,6.11,4.51,12.66,8.77,21.04,9.55,8.15.77,16.73,2.03,24.06,5.4,15.22,6.99,29.78,15.43,44.5,23.47,6.36,3.47,9.87,9.34,11.36,16.25,3.66,17.01-2.49,31.39-12.79,44.38-1.19,1.5-4,2.13-6.14,2.36-5.99.67-11.43,2.51-15.73,6.76-4.86,4.82-10.29,7.28-17.33,8.13-27.07,3.26-52.95,13.12-80.43,14.5-9.65.49-16.27,6.73-19.95,15.32-4.64,10.84-3.31,22.32-1.27,33.44,2.72,14.83,12.74,22.63,27.81,22.76,8.16.07,16.33.01,24.49.01ZM176.81,203.12c-1.17-.8-1.91-1.2-2.52-1.75-6.58-5.82-12.76-12.22-19.88-17.29-3.93-2.8-6.59-5.51-8.61-9.97-6.4-14.21-12.7-28.58-20.55-42.01-13.08-22.35-27.42-43.96-41-66.02-2.65-4.3-4.53-9.14-6.26-13.91-4.36-11.99-12.07-20.11-24.97-22.46-15.48-2.83-29.94,9.06-29.95,24.54,0,2.67-.03,5.33.02,8,.37,20.57,5.55,39.4,19.86,54.96,4.37,4.76,9.13,9.33,12.61,14.71,5.03,7.79,8.94,16.3,13.54,24.38,5.97,10.49,11,21.3,11.77,33.56.39,6.22,2.77,11.13,6.56,16.2,3.82,5.11,5.97,11.63,8.08,17.79,1.6,4.69,3.52,9.38,8.35,10.31,6.66,1.29,10.59,5.76,15.14,9.8,1.72,1.52,3.69,3.08,5.81,3.74,3.34,1.05,4.73,3.28,5.45,6.33,2.56,10.98,5.66,21.87,7.5,32.97,1.44,8.63,2.53,17.68-5.2,24.81-1.83,1.69-2.74,4.55-3.64,7.03-2.3,6.38-4.35,12.85-6.49,19.29-3.19,9.6-6.47,19.18-9.55,28.81-5.31,16.59-10.51,33.21-15.71,49.83-.79,2.52-1.82,5.12-1.86,7.69-.18,13.83-.47,27.67,0,41.49.61,17.71,11.06,27.17,27.62,24.66,5.51-.83,10.87-3.9,15.84-6.74,3.41-1.95,6.48-3.41,10.56-3.36,10.93.14,16.85-5.79,17.5-16.77.41-6.96.63-13.96,1.51-20.87,2.97-23.42,11.95-44.89,22.37-65.75,14.58-29.19,25.49-59.82,36.45-90.45,3.91-10.91,6.7-22.6,12.59-32.36,24.28-40.21,45.74-81.68,60.56-126.34,3.8-11.46,7.92-23.12,9.33-34.99,1.61-13.64.66-27.63.2-41.44-.14-4.08-1.69-8.49-3.79-12.04-3.53-5.98-8.15-11.3-12.06-17.08-4.1-6.05-8.89-11.13-15.83-13.95-10.71-4.35-22.61.07-24.23,9.93-1.4,8.52-6.05,14.84-10.76,21.51-2.16,3.06-3.55,7.1-4.01,10.84-.84,6.91-.27,13.99-1.11,20.9-1.45,11.95-3.62,22.92-16.39,29.67-13.59,7.18-22.37,19.63-24.21,35.33-1.58,13.41-1.56,27.03-10.37,38.4-.1.12-.09.32-.15.47-3.31,9.04-6.62,18.07-10.11,27.6Zm321.21,59.97c-.48-28.34-23.88-51.93-51.06-52.06-29.19-.13-53.05,22.89-52.89,51.51.17,30.11,24.55,51.58,50.41,52.19,29.71.7,52.47-23.69,53.53-51.65Zm667.98-3.66c-.22-29.47-24.78-52.27-51.85-52.2-28.46.07-51.49,23.25-52.06,51.4-.58,28.25,23.7,52.12,50.98,52.44,28.28.34,52.54-23.11,52.93-51.64Z"/>
  <path class="cls-7" d="m735.01,319.01c0,27.27,0,53.08,0,78.89,0,8.13,3.87,11.98,11.96,12.11,25.13.4,50.23,1.33,74.7,7.91,5.59,1.5,10.95,3.83,16.47,5.59,2.49.79,5.11,1.45,7.7,1.61,9.51.59,17.76,3.64,24.41,10.82,5.77,6.23,12.05,11.97,17.83,18.19,5.88,6.34,8.63,14.07,8.93,22.71.21,5.98.68,11.95.73,17.93.1,11.38-5.7,16.52-17.16,17.36-19.32,1.42-37.45-2.68-55.59-8.89-23.35-7.99-47.38-13.92-72.34-12.03-10.12.77-20.33,3.25-29.99,6.49-11.44,3.83-22.62,7.3-34.45,2.83-10.8-4.07-18.11-12.11-21.01-23.08-2.23-8.43-3.63-17.33-3.7-26.03-.37-42.66-.38-85.32,0-127.98.07-8.04,2.65-16.04,3.74-24.11,3.26-24.07,2.91-48.22-1.42-72.03-4.7-25.85-10.85-51.44-16.31-77.15-.65-3.08-1.26-6.24-1.28-9.36-.11-22.16.11-44.33-.12-66.49-.11-11.32,3.25-20.83,11.79-28.51,1.69-1.52,2.87-4.02,3.43-6.28,1.79-7.21,6.22-11.6,13.84-12.25,5.13-.43,10.33-.4,15.48-.12,4.99.27,8.97,2.91,11.27,7.28,7.8,14.84,20.96,18.17,35.92,16.04,11.31-1.61,22.38-4.92,33.61-7.22,4.7-.96,9.54-1.23,14.31-1.85,22.4-2.95,44.84-5.61,67.18-8.95,23.25-3.47,46.5-6.46,70.07-5.4,9.93.45,19.43,2.72,25.33,11.54,2.74,4.09,5.06,9.18,5.44,13.98.82,10.27.23,20.64.25,30.98.01,6.1-2.61,10.61-7.34,14.53-12.61,10.48-26.96,14.97-43.28,15.04-31.28.14-62.01,5-92.21,12.94-18.61,4.9-36.87,11.12-55.53,15.78-7.91,1.98-16.44,1.5-24.69,2.14-3.46.27-6.93.53-10.87.83-.42,2.81-1.08,5.37-1.14,7.95-.4,16.64-.78,33.28-.92,49.92-.05,5.64.52,11.28.97,16.91.1,1.27.47,3.17,1.33,3.62,6.5,3.44,13.09,9.22,19.77,9.39,36.64.91,73.31.38,109.98.43,17.02.03,31.45,6.24,42.94,18.85,6.5,7.13,7.89,15.46,5.03,24.62-1.13,3.61-2.25,7.24-2.99,10.94-2.32,11.55-6.57,15.67-18.26,17.87-11.07,2.08-22.09,4.47-33.15,6.64-25.07,4.92-50.37,7.35-75.92,7.09-11.45-.12-22.9-.02-34.69-.02Z"/>
  <path class="cls-7" d="m1374.2,495c-7.33,0-14.67,0-22,0-17.82-.01-27.75-7.57-30.48-25.04-1.32-8.43-1.11-17.37.06-25.86,1.66-12.03,11.35-20.36,26.43-21.31,20.66-1.3,40.22-7.4,60.27-11.35,4.4-.87,8.83-2,13.27-2.18,8-.32,14.16-3.72,20.24-8.77,3.86-3.21,9.32-5.03,14.35-6.12,4.03-.86,6.75-2.06,9.18-5.55,7.04-10.12,11.53-21.07,11.42-33.43-.1-11.42-4.75-20.53-15.35-26.04-14.58-7.57-28.83-15.84-43.74-22.67-6.57-3.01-14.37-3.91-21.72-4.52-9.25-.77-16.11-6.04-23.25-10.69-17.61-11.47-33.46-25.18-48.5-39.83-6.68-6.5-13.18-13.21-20.22-19.3-13.21-11.45-20.58-26.44-26-42.46-6.02-17.77-8.98-36.19-7.89-55,1.32-22.8,6.52-44.66,21.37-62.67,15.76-19.12,34.37-34.56,60.49-36.8,27.91-2.4,53.37,3.13,73.19,24.78,6.17,6.73,11.11,14.52,11.65,23.74.58,10.04,1.11,20.45-.85,30.2-2.86,14.22-16.47,19.03-28.62,11.16-3.66-2.37-7.19-3.34-11.49-3.49-3.86-.13-7.76-1.43-11.5-2.66-5.03-1.66-9.84-4.03-14.9-5.57-7.29-2.21-12.05-.92-15.87,5.64-5.73,9.85-12.93,18.4-20.41,26.85-7.93,8.95-6.95,18.89-2.19,28.88,6.61,13.9,16.6,25.15,29.65,32.95,18.66,11.16,37.77,21.61,57.07,31.63,21.53,11.18,43.46,21.62,65.28,32.25,9.85,4.79,20.2,8.66,29.75,13.97,18.42,10.24,31.86,25.65,41,44.41,6.38,13.1,12.01,26.69,16.46,40.55,2.02,6.28,1.22,13.87.22,20.66-4.7,32.02-20.85,56.71-49.89,71.45-11.42,5.79-24.32,8.72-36.65,12.63-22.97,7.28-45.93,14.8-69.98,17.64-13.19,1.56-26.54,1.8-39.82,2.63-.02-.24-.03-.48-.05-.73Z"/>
  <path class="cls-7" d="m2010.62,495c-8.16,0-16.33.06-24.49-.01-15.07-.13-25.09-7.92-27.81-22.76-2.04-11.12-3.36-22.6,1.27-33.44,3.68-8.6,10.29-14.84,19.95-15.32,27.48-1.39,53.37-11.25,80.43-14.5,7.04-.85,12.46-3.32,17.33-8.13,4.3-4.25,9.74-6.09,15.73-6.76,2.15-.24,4.95-.87,6.14-2.36,10.3-12.99,16.45-27.37,12.79-44.38-1.48-6.9-4.99-12.78-11.36-16.25-14.72-8.04-29.28-16.47-44.5-23.47-7.33-3.37-15.91-4.63-24.06-5.4-8.38-.79-14.93-5.05-21.04-9.55-15.09-11.14-29.78-22.87-44.13-34.96-9.02-7.6-16.86-16.58-25.72-24.38-13.33-11.74-21.18-26.8-26.79-43.12-5.88-17.1-8.68-34.9-8.01-52.99.9-24.23,6.74-47.07,22.3-66.38,32.43-40.24,80.14-46.82,120.66-21.4,16.42,10.3,25.82,25.76,24.61,46.01-.45,7.55-.69,15.44-3.1,22.47-3.73,10.87-15.7,14.5-25.47,8.34-4.84-3.05-9.57-4.25-15.22-4.55-4.6-.24-9.08-2.77-13.61-4.31-4.07-1.39-8.05-3.13-12.21-4.17-4.97-1.24-10.07-.62-12.94,4.03-6.89,11.21-15.32,21.14-23.6,31.3-7.61,9.34-4.06,19.79,1.05,29.47,10.19,19.29,27.2,31.3,45.75,40.93,36.86,19.13,74.03,37.69,111.39,55.82,12.27,5.95,24.83,11,35.67,19.63,15.69,12.5,25.77,28.91,33.94,46.74,2.76,6.02,4.51,12.52,7.42,18.46,7.62,15.55,5.09,31.19.55,46.68-7.36,25.14-22.93,43.95-45.95,56.36-4.9,2.64-10.44,4.24-15.83,5.79-27.11,7.81-54.05,16.45-81.52,22.75-16.04,3.68-32.97,3.5-49.5,5.06-.04-.42-.08-.84-.12-1.26Z"/>
  <path class="cls-7" d="m176.81,203.12c3.49-9.53,6.8-18.56,10.11-27.6.06-.16.06-.35.15-.47,8.81-11.37,8.8-24.99,10.37-38.4,1.84-15.7,10.62-28.14,24.21-35.33,12.78-6.75,14.95-17.72,16.39-29.67.84-6.91.27-13.99,1.11-20.9.45-3.75,1.85-7.78,4.01-10.84,4.71-6.67,9.36-12.99,10.76-21.51,1.62-9.86,13.51-14.29,24.23-9.93,6.94,2.82,11.73,7.89,15.83,13.95,3.91,5.77,8.53,11.1,12.06,17.08,2.1,3.55,3.65,7.96,3.79,12.04.46,13.82,1.42,27.8-.2,41.44-1.4,11.87-5.52,23.53-9.33,34.99-14.82,44.67-36.28,86.14-60.56,126.34-5.9,9.76-8.69,21.45-12.59,32.36-10.96,30.63-21.87,61.26-36.45,90.45-10.42,20.86-19.4,42.34-22.37,65.75-.88,6.91-1.09,13.91-1.51,20.87-.65,10.98-6.57,16.91-17.5,16.77-4.08-.05-7.15,1.41-10.56,3.36-4.97,2.84-10.33,5.9-15.84,6.74-16.56,2.5-27.01-6.95-27.62-24.66-.47-13.81-.19-27.66,0-41.49.03-2.57,1.07-5.17,1.86-7.69,5.2-16.62,10.4-33.24,15.71-49.83,3.08-9.64,6.36-19.21,9.55-28.81,2.14-6.44,4.2-12.91,6.49-19.29.89-2.48,1.81-5.34,3.64-7.03,7.73-7.13,6.64-16.18,5.2-24.81-1.85-11.1-4.94-21.99-7.5-32.97-.71-3.05-2.1-5.28-5.45-6.33-2.13-.67-4.1-2.22-5.81-3.74-4.55-4.04-8.48-8.51-15.14-9.8-4.83-.93-6.75-5.62-8.35-10.31-2.11-6.17-4.26-12.69-8.08-17.79-3.79-5.07-6.17-9.98-6.56-16.2-.77-12.25-5.8-23.07-11.77-33.56-4.6-8.08-8.51-16.59-13.54-24.38-3.47-5.37-8.23-9.95-12.61-14.71-14.31-15.56-19.49-34.38-19.86-54.96-.05-2.67-.02-5.33-.02-8,0-15.48,14.47-27.37,29.95-24.54,12.89,2.36,20.6,10.48,24.97,22.46,1.74,4.77,3.62,9.61,6.26,13.91,13.58,22.06,27.93,43.67,41,66.02,7.85,13.42,14.15,27.79,20.55,42.01,2.01,4.47,4.68,7.17,8.61,9.97,7.12,5.07,13.29,11.47,19.88,17.29.61.54,1.35.94,2.52,1.75Z"/>
  <path class="cls-1" d="m498.02,263.09c-1.06,27.96-23.82,52.35-53.53,51.65-25.87-.61-50.24-22.08-50.41-52.19-.16-28.62,23.7-51.64,52.89-51.51,27.18.12,50.58,23.72,51.06,52.06Z"/>
  <path class="cls-2" d="m1166,259.43c-.39,28.54-24.65,51.98-52.93,51.64-27.28-.32-51.56-24.19-50.98-52.44.57-28.16,23.6-51.33,52.06-51.4,27.07-.07,51.63,22.73,51.85,52.2Z"/>
  <path class="cls-6" d="m1684.09,267.02c-1.51-13.05.22-25.52,7.83-36.49,6.56-9.46,14.69-17.4,26.26-20.45,6.47-1.7,13.25-4.03,19.72-3.59,16.79,1.14,30.53,8.21,40.61,22.66,8.38,12.03,10.95,24.75,9.32,38.83-.61,0-1.23,0-1.84,0,.86-13.29-1.47-25.33-9.21-36.92-10.29-15.41-25.21-20.99-42.03-22.69-5.94-.6-12.81,1.71-18.33,4.51-13.5,6.83-24.66,16.63-28.33,32.03-1.85,7.75-1.45,16.03-2.07,24.08-.64-.66-1.28-1.32-1.92-1.98Z"/>
  <path class="cls-3" d="m1785.98,267.99c.61,0,1.23,0,1.84,0-1.91,9.62-6.09,18.19-12.43,25.62-12.6,14.77-29.06,20.4-47.79,17.82-7.34-1.01-14.69-4.66-21.18-8.54-11.63-6.96-17.78-18.44-22.09-30.92-.52-1.5-.19-3.29-.25-4.95.64.66,1.28,1.32,1.92,1.98,1.57,4.25,2.35,9.07,4.89,12.62,4.18,5.84,7.57,12.15,13.9,16.69,9.49,6.79,19.57,10.93,31,11.56,4,.22,8.42-.47,12.07-2.05,7.43-3.22,15.53-6.13,21.41-11.36,8.32-7.4,13.75-17.43,16.69-28.46Z"/>
  <path class="cls-4" d="m1785.98,267.99c-2.95,11.03-8.37,21.06-16.69,28.46-5.88,5.23-13.99,8.14-21.41,11.36-3.66,1.58-8.07,2.27-12.07,2.05-11.44-.63-21.51-4.76-31-11.56-6.33-4.53-9.73-10.85-13.9-16.69-2.54-3.55-3.32-8.37-4.89-12.62.62-8.04.22-16.33,2.07-24.08,3.67-15.4,14.83-25.2,28.33-32.03,5.53-2.8,12.39-5.11,18.33-4.51,16.82,1.7,31.74,7.28,42.03,22.69,7.74,11.59,10.07,23.64,9.21,36.92Z"/>
</svg>